<?xml version="1.0" encoding="utf-8"?>
<!-- Generator: Adobe Illustrator 22.1.0, SVG Export Plug-In . SVG Version: 6.00 Build 0)  -->
<svg version="1.1" id="Layer_1" xmlns="http://www.w3.org/2000/svg" xmlns:xlink="http://www.w3.org/1999/xlink" x="0px" y="0px"
	 viewBox="0 0 592 329" style="enable-background:new 0 0 592 329;" xml:space="preserve">
<style type="text/css">
	.st0{fill:none;stroke:#999999;stroke-width:8;stroke-miterlimit:10;}
	.st1{fill:#999999;}
	.st2{fill:#4285F4;}
	.st3{fill:#DB4437;}
	.st4{fill:#F4B402;}
</style>
<line class="st0" x1="41.5" y1="163.5" x2="153.5" y2="163.5"/>
<line class="st0" x1="448" y1="164" x2="560" y2="164"/>
<line class="st0" x1="225" y1="287" x2="438" y2="164"/>
<line class="st0" x1="367" y1="292" x2="153" y2="163"/>
<line class="st0" x1="367" y1="38" x2="153" y2="163"/>
<line class="st0" x1="225" y1="41" x2="441" y2="164"/>
<line class="st0" x1="225" y1="41" x2="153" y2="163"/>
<line class="st0" x1="367" y1="38" x2="441" y2="164"/>
<line class="st0" x1="367" y1="292" x2="441" y2="164"/>
<line class="st0" x1="225" y1="287" x2="153" y2="164"/>
<circle class="st1" cx="41" cy="164" r="41.5"/>
<circle class="st2" cx="153" cy="164" r="41.5"/>
<circle class="st2" cx="438" cy="164" r="41.5"/>
<circle class="st1" cx="550" cy="164" r="41.5"/>
<circle class="st3" cx="225" cy="287" r="41.5"/>
<circle class="st4" cx="367" cy="287" r="41.5"/>
<circle class="st4" cx="225" cy="41" r="41.5"/>
<circle class="st3" cx="367" cy="41" r="41.5"/>
</svg>
