<!--
// Copyright 2014 The Cayley Authors. All rights reserved.
//
// Licensed under the Apache License, Version 2.0 (the "License");
// you may not use this file except in compliance with the License.
// You may obtain a copy of the License at
//
//     http://www.apache.org/licenses/LICENSE-2.0
//
// Unless required by applicable law or agreed to in writing, software
// distributed under the License is distributed on an "AS IS" BASIS,
// WITHOUT WARRANTIES OR CONDITIONS OF ANY KIND, either express or implied.
// See the License for the specific language governing permissions and
// limitations under the License.
-->
<?xml version="1.0" encoding="utf-8" ?>
<svg baseProfile="full" height="100%" version="1.1" width="100%" xmlns="http://www.w3.org/2000/svg" xmlns:ev="http://www.w3.org/2001/xml-events" xmlns:xlink="http://www.w3.org/1999/xlink"><defs /><line stroke="#999999" stroke-width="2.5" x1="15" x2="55.0" y1="65" y2="65.0" /><line stroke="#999999" stroke-width="2.5" x1="195" x2="155.0" y1="65" y2="65.0" /><line stroke="#999999" stroke-width="2.5" x1="155.0" x2="130.0" y1="65.0" y2="21.6987298108" /><line stroke="#999999" stroke-width="2.5" x1="155.0" x2="80.0" y1="65.0" y2="21.6987298108" /><line stroke="#999999" stroke-width="2.5" x1="155.0" x2="80.0" y1="65.0" y2="108.301270189" /><line stroke="#999999" stroke-width="2.5" x1="155.0" x2="130.0" y1="65.0" y2="108.301270189" /><line stroke="#999999" stroke-width="2.5" x1="130.0" x2="55.0" y1="21.6987298108" y2="65.0" /><line stroke="#999999" stroke-width="2.5" x1="80.0" x2="55.0" y1="21.6987298108" y2="65.0" /><line stroke="#999999" stroke-width="2.5" x1="55.0" x2="80.0" y1="65.0" y2="108.301270189" /><line stroke="#999999" stroke-width="2.5" x1="55.0" x2="130.0" y1="65.0" y2="108.301270189" /><circle cx="155.0" cy="65.0" fill="#4285F4" r="15" /><circle cx="130.0" cy="21.6987298108" fill="#DB4437" r="15" /><circle cx="80.0" cy="21.6987298108" fill="#F4B400" r="15" /><circle cx="55.0" cy="65.0" fill="#4285F4" r="15" /><circle cx="80.0" cy="108.301270189" fill="#DB4437" r="15" /><circle cx="130.0" cy="108.301270189" fill="#F4B400" r="15" /><circle cx="15" cy="65" fill="#999999" r="15" /><circle cx="195" cy="65" fill="#999999" r="15" /></svg>
